<mxfile host="app.diagrams.net" modified="2021-04-14T22:28:10.374Z" agent="5.0 (Windows NT 10.0; Win64; x64) AppleWebKit/537.36 (KHTML, like Gecko) Chrome/89.0.4389.114 Safari/537.36" etag="CYovpi9xMgAmWIDYfdy7" version="14.6.0" type="github">
  <diagram id="OzK7kCXKOXfntMJvkWZg" name="Page-1">
    <mxGraphModel dx="1955" dy="1093" grid="0" gridSize="10" guides="1" tooltips="1" connect="1" arrows="1" fold="1" page="1" pageScale="1" pageWidth="1654" pageHeight="1169" background="#F0FFFD" math="0" shadow="1">
      <root>
        <mxCell id="0" />
        <mxCell id="1" parent="0" />
        <mxCell id="WmbeK4CtPqVoYz8nJGs1-4" value="" style="shape=internalStorage;whiteSpace=wrap;html=1;backgroundOutline=1;rounded=1;glass=0;dx=18;dy=24;arcSize=14;fillColor=#f9f7ed;strokeColor=#36393d;" parent="1" vertex="1">
          <mxGeometry x="775" y="42" width="219" height="82" as="geometry" />
        </mxCell>
        <mxCell id="WmbeK4CtPqVoYz8nJGs1-5" value="&lt;font style=&quot;font-size: 14px&quot;&gt;&lt;b&gt;&lt;i&gt;INotifyPropertyChanged&lt;/i&gt;&lt;/b&gt;&lt;/font&gt;" style="text;html=1;strokeColor=none;fillColor=none;align=center;verticalAlign=middle;whiteSpace=wrap;rounded=0;glass=0;" parent="1" vertex="1">
          <mxGeometry x="812.5" y="42" width="137" height="27" as="geometry" />
        </mxCell>
        <mxCell id="WmbeK4CtPqVoYz8nJGs1-6" value="+ NotifyPropertyChanged()" style="text;html=1;strokeColor=none;fillColor=none;align=center;verticalAlign=middle;whiteSpace=wrap;rounded=0;glass=0;" parent="1" vertex="1">
          <mxGeometry x="782" y="59" width="170.5" height="48" as="geometry" />
        </mxCell>
        <mxCell id="WmbeK4CtPqVoYz8nJGs1-7" value="" style="endArrow=classic;html=1;" parent="1" edge="1">
          <mxGeometry width="50" height="50" relative="1" as="geometry">
            <mxPoint x="880.76" y="190" as="sourcePoint" />
            <mxPoint x="880.76" y="124" as="targetPoint" />
          </mxGeometry>
        </mxCell>
        <mxCell id="WmbeK4CtPqVoYz8nJGs1-8" value="" style="shape=internalStorage;whiteSpace=wrap;html=1;backgroundOutline=1;rounded=1;glass=0;fillColor=#f9f7ed;strokeColor=#36393d;" parent="1" vertex="1">
          <mxGeometry x="775" y="181" width="214" height="93" as="geometry" />
        </mxCell>
        <mxCell id="WmbeK4CtPqVoYz8nJGs1-46" value="" style="shape=process;whiteSpace=wrap;html=1;backgroundOutline=1;rounded=1;glass=0;size=0.3247933623455323;arcSize=2;fillColor=#f8cecc;strokeColor=#b85450;" parent="1" vertex="1">
          <mxGeometry x="588.5" y="890.25" width="526" height="141" as="geometry" />
        </mxCell>
        <mxCell id="WmbeK4CtPqVoYz8nJGs1-48" value="" style="shape=process;whiteSpace=wrap;html=1;backgroundOutline=1;rounded=1;glass=0;size=0.3370280948200178;arcSize=3;fillColor=#f8cecc;strokeColor=#b85450;" parent="1" vertex="1">
          <mxGeometry x="58.5" y="890.25" width="536" height="140" as="geometry" />
        </mxCell>
        <mxCell id="WmbeK4CtPqVoYz8nJGs1-53" value="" style="shape=internalStorage;whiteSpace=wrap;html=1;backgroundOutline=1;rounded=1;glass=0;fillColor=#f9f7ed;strokeColor=#36393d;" parent="1" vertex="1">
          <mxGeometry x="774" y="326" width="214" height="91" as="geometry" />
        </mxCell>
        <mxCell id="WmbeK4CtPqVoYz8nJGs1-54" value="" style="endArrow=classic;html=1;exitX=0.539;exitY=-0.005;exitDx=0;exitDy=0;exitPerimeter=0;" parent="1" source="WmbeK4CtPqVoYz8nJGs1-67" edge="1">
          <mxGeometry width="50" height="50" relative="1" as="geometry">
            <mxPoint x="884.16" y="338" as="sourcePoint" />
            <mxPoint x="884.16" y="272" as="targetPoint" />
          </mxGeometry>
        </mxCell>
        <mxCell id="WmbeK4CtPqVoYz8nJGs1-57" value="" style="rounded=0;whiteSpace=wrap;html=1;glass=0;fillColor=#f8cecc;strokeColor=#b85450;" parent="1" vertex="1">
          <mxGeometry x="415.5" y="862" width="180" height="28" as="geometry" />
        </mxCell>
        <mxCell id="WmbeK4CtPqVoYz8nJGs1-58" value="" style="rounded=0;whiteSpace=wrap;html=1;glass=0;fillColor=#f8cecc;strokeColor=#b85450;" parent="1" vertex="1">
          <mxGeometry x="59.5" y="862" width="182" height="28" as="geometry" />
        </mxCell>
        <mxCell id="WmbeK4CtPqVoYz8nJGs1-59" value="" style="rounded=0;whiteSpace=wrap;html=1;glass=0;fillColor=#f8cecc;strokeColor=#b85450;" parent="1" vertex="1">
          <mxGeometry x="241" y="862" width="173" height="28" as="geometry" />
        </mxCell>
        <mxCell id="WmbeK4CtPqVoYz8nJGs1-60" value="" style="rounded=0;whiteSpace=wrap;html=1;glass=0;fillColor=#f8cecc;strokeColor=#b85450;" parent="1" vertex="1">
          <mxGeometry x="595.5" y="862" width="170" height="28" as="geometry" />
        </mxCell>
        <mxCell id="WmbeK4CtPqVoYz8nJGs1-61" value="" style="rounded=0;whiteSpace=wrap;html=1;glass=0;fillColor=#f8cecc;strokeColor=#b85450;" parent="1" vertex="1">
          <mxGeometry x="761.5" y="862" width="183" height="28" as="geometry" />
        </mxCell>
        <mxCell id="WmbeK4CtPqVoYz8nJGs1-62" value="" style="rounded=0;whiteSpace=wrap;html=1;glass=0;fillColor=#f8cecc;strokeColor=#b85450;" parent="1" vertex="1">
          <mxGeometry x="945.5" y="862" width="170" height="28" as="geometry" />
        </mxCell>
        <mxCell id="WmbeK4CtPqVoYz8nJGs1-63" value="" style="shape=internalStorage;whiteSpace=wrap;html=1;backgroundOutline=1;rounded=1;glass=0;dx=6;dy=29;fillColor=#d5e8d4;strokeColor=#82b366;" parent="1" vertex="1">
          <mxGeometry x="285" y="531" width="197" height="110" as="geometry" />
        </mxCell>
        <mxCell id="WmbeK4CtPqVoYz8nJGs1-64" value="" style="shape=internalStorage;whiteSpace=wrap;html=1;backgroundOutline=1;rounded=1;glass=0;dx=19;dy=29;fillColor=#d5e8d4;strokeColor=#82b366;" parent="1" vertex="1">
          <mxGeometry x="514" y="530" width="204" height="110" as="geometry" />
        </mxCell>
        <mxCell id="WmbeK4CtPqVoYz8nJGs1-66" value="ISimulatorModel" style="text;html=1;strokeColor=none;fillColor=none;align=center;verticalAlign=middle;whiteSpace=wrap;rounded=0;glass=0;" parent="1" vertex="1">
          <mxGeometry x="798" y="181" width="166" height="20" as="geometry" />
        </mxCell>
        <mxCell id="WmbeK4CtPqVoYz8nJGs1-67" value="MySimulatorModel" style="text;html=1;strokeColor=none;fillColor=none;align=center;verticalAlign=middle;whiteSpace=wrap;rounded=0;glass=0;" parent="1" vertex="1">
          <mxGeometry x="811.5" y="326" width="138" height="20" as="geometry" />
        </mxCell>
        <mxCell id="WmbeK4CtPqVoYz8nJGs1-69" value="&lt;span style=&quot;text-align: center&quot;&gt;+ NotifyPropertyChanged()&lt;/span&gt;&lt;br&gt;+ Connect()&amp;nbsp;&lt;br&gt;+ Disconnect()&lt;br&gt;+ Start()&lt;br&gt;+ SendCommandToSimulator()" style="text;html=1;strokeColor=none;fillColor=none;align=left;verticalAlign=middle;whiteSpace=wrap;rounded=0;glass=0;" parent="1" vertex="1">
          <mxGeometry x="799" y="195" width="190" height="88.5" as="geometry" />
        </mxCell>
        <mxCell id="WmbeK4CtPqVoYz8nJGs1-71" value="&lt;span style=&quot;text-align: center&quot;&gt;+ NotifyPropertyChanged()&lt;/span&gt;&lt;br&gt;+ Connect()&lt;br&gt;+ Disconnect()&lt;br&gt;+ Start()&lt;br&gt;+ SendCommandToSimulator()" style="text;html=1;strokeColor=none;fillColor=none;align=left;verticalAlign=middle;whiteSpace=wrap;rounded=0;glass=0;" parent="1" vertex="1">
          <mxGeometry x="798" y="335" width="206" height="91.5" as="geometry" />
        </mxCell>
        <mxCell id="WmbeK4CtPqVoYz8nJGs1-72" value="" style="shape=internalStorage;whiteSpace=wrap;html=1;backgroundOutline=1;rounded=1;glass=0;dx=16;dy=29;fillColor=#d5e8d4;strokeColor=#82b366;" parent="1" vertex="1">
          <mxGeometry x="753" y="530" width="204" height="110" as="geometry" />
        </mxCell>
        <mxCell id="WmbeK4CtPqVoYz8nJGs1-73" value="" style="shape=internalStorage;whiteSpace=wrap;html=1;backgroundOutline=1;rounded=1;glass=0;dx=9;dy=29;fillColor=#d5e8d4;strokeColor=#82b366;" parent="1" vertex="1">
          <mxGeometry x="984" y="530" width="204" height="110" as="geometry" />
        </mxCell>
        <mxCell id="WmbeK4CtPqVoYz8nJGs1-74" value="" style="shape=internalStorage;whiteSpace=wrap;html=1;backgroundOutline=1;rounded=1;glass=0;dx=10;dy=31;fillColor=#d5e8d4;strokeColor=#82b366;" parent="1" vertex="1">
          <mxGeometry x="1221" y="531" width="204" height="110" as="geometry" />
        </mxCell>
        <mxCell id="WmbeK4CtPqVoYz8nJGs1-75" value="ConnectionButtonsViewModel" style="text;html=1;strokeColor=none;fillColor=none;align=center;verticalAlign=middle;whiteSpace=wrap;rounded=0;glass=0;" parent="1" vertex="1">
          <mxGeometry x="275" y="538" width="224" height="20" as="geometry" />
        </mxCell>
        <mxCell id="WmbeK4CtPqVoYz8nJGs1-76" value="DashboardViewModel" style="text;html=1;strokeColor=none;fillColor=none;align=center;verticalAlign=middle;whiteSpace=wrap;rounded=0;glass=0;" parent="1" vertex="1">
          <mxGeometry x="521" y="537" width="183" height="20" as="geometry" />
        </mxCell>
        <mxCell id="WmbeK4CtPqVoYz8nJGs1-77" value="ExampleViewModel" style="text;html=1;strokeColor=none;fillColor=none;align=center;verticalAlign=middle;whiteSpace=wrap;rounded=0;glass=0;" parent="1" vertex="1">
          <mxGeometry x="757" y="537" width="168" height="20" as="geometry" />
        </mxCell>
        <mxCell id="WmbeK4CtPqVoYz8nJGs1-78" value="FlightSimulatorApp.ViewModels" style="text;html=1;strokeColor=none;fillColor=none;align=center;verticalAlign=middle;whiteSpace=wrap;rounded=0;glass=0;" parent="1" vertex="1">
          <mxGeometry x="1009" y="537" width="163" height="20" as="geometry" />
        </mxCell>
        <mxCell id="WmbeK4CtPqVoYz8nJGs1-79" value="MainViewModel" style="text;html=1;strokeColor=none;fillColor=none;align=center;verticalAlign=middle;whiteSpace=wrap;rounded=0;glass=0;" parent="1" vertex="1">
          <mxGeometry x="1260" y="535" width="126" height="20" as="geometry" />
        </mxCell>
        <mxCell id="WmbeK4CtPqVoYz8nJGs1-80" value="+ NotifyPropertyChanged()&lt;br&gt;+ConnectionButtonsViewModel()&lt;br&gt;+VM_CurrStatus()&lt;br&gt;+VM_IPaddress()" style="text;html=1;strokeColor=none;fillColor=none;align=left;verticalAlign=middle;whiteSpace=wrap;rounded=0;glass=0;" parent="1" vertex="1">
          <mxGeometry x="300" y="553" width="179" height="80" as="geometry" />
        </mxCell>
        <mxCell id="WmbeK4CtPqVoYz8nJGs1-81" value="&lt;span&gt;+ NotifyPropertyChanged()&lt;br&gt;&lt;/span&gt;+ DashboardViewModel()&lt;br&gt;&lt;span&gt;+VM_AirSpeed()&lt;br&gt;&lt;div&gt;&lt;span&gt;+VM_Altemeter()&lt;/span&gt;&lt;/div&gt;&lt;/span&gt;" style="text;html=1;strokeColor=none;fillColor=none;align=left;verticalAlign=middle;whiteSpace=wrap;rounded=0;glass=0;" parent="1" vertex="1">
          <mxGeometry x="538.5" y="553" width="155" height="77" as="geometry" />
        </mxCell>
        <mxCell id="WmbeK4CtPqVoYz8nJGs1-82" value="+ Name()&lt;br&gt;+ OnPropertyChanged()" style="text;html=1;strokeColor=none;fillColor=none;align=center;verticalAlign=middle;whiteSpace=wrap;rounded=0;glass=0;" parent="1" vertex="1">
          <mxGeometry x="757" y="547" width="176" height="70" as="geometry" />
        </mxCell>
        <mxCell id="WmbeK4CtPqVoYz8nJGs1-83" value="&lt;span style=&quot;text-align: left&quot;&gt;+ NotifyPropertyChanged()&lt;br&gt;&lt;/span&gt;+FlightControlsViewModel()&lt;br&gt;+VM_Elevator()&lt;br&gt;+VM_Aileron()" style="text;html=1;strokeColor=none;fillColor=none;align=center;verticalAlign=middle;whiteSpace=wrap;rounded=0;glass=0;" parent="1" vertex="1">
          <mxGeometry x="984" y="559" width="196" height="68" as="geometry" />
        </mxCell>
        <mxCell id="WmbeK4CtPqVoYz8nJGs1-84" value="&lt;span style=&quot;text-align: left&quot;&gt;+ NotifyPropertyChanged()&lt;br&gt;+ DashboardViewModel()&lt;br&gt;+FlightControlViewModel()&lt;br&gt;&lt;/span&gt;" style="text;html=1;strokeColor=none;fillColor=none;align=center;verticalAlign=middle;whiteSpace=wrap;rounded=0;glass=0;" parent="1" vertex="1">
          <mxGeometry x="1243" y="553" width="168" height="72" as="geometry" />
        </mxCell>
        <mxCell id="RUk002K17qzkggGKawHd-14" value="" style="shape=process;whiteSpace=wrap;html=1;backgroundOutline=1;rounded=1;glass=0;size=0.3247933623455323;arcSize=2;fillColor=#f8cecc;strokeColor=#b85450;" parent="1" vertex="1">
          <mxGeometry x="1114.5" y="890.25" width="526" height="141" as="geometry" />
        </mxCell>
        <mxCell id="RUk002K17qzkggGKawHd-15" value="" style="rounded=0;whiteSpace=wrap;html=1;glass=0;fillColor=#f8cecc;strokeColor=#b85450;" parent="1" vertex="1">
          <mxGeometry x="1115.5" y="862" width="172" height="28" as="geometry" />
        </mxCell>
        <mxCell id="RUk002K17qzkggGKawHd-16" value="" style="rounded=0;whiteSpace=wrap;html=1;glass=0;fillColor=#f8cecc;strokeColor=#b85450;" parent="1" vertex="1">
          <mxGeometry x="1287.5" y="862" width="183" height="28" as="geometry" />
        </mxCell>
        <mxCell id="RUk002K17qzkggGKawHd-17" value="" style="rounded=0;whiteSpace=wrap;html=1;glass=0;fillColor=#f8cecc;strokeColor=#b85450;" parent="1" vertex="1">
          <mxGeometry x="1470.5" y="862" width="170" height="28" as="geometry" />
        </mxCell>
        <mxCell id="RUk002K17qzkggGKawHd-18" value="ConnectionButtons" style="text;html=1;strokeColor=none;fillColor=none;align=center;verticalAlign=middle;whiteSpace=wrap;rounded=0;" parent="1" vertex="1">
          <mxGeometry x="67" y="864" width="152.5" height="20" as="geometry" />
        </mxCell>
        <mxCell id="RUk002K17qzkggGKawHd-19" value="ConnectionDefinitionsWindow" style="text;html=1;strokeColor=none;fillColor=none;align=center;verticalAlign=middle;whiteSpace=wrap;rounded=0;" parent="1" vertex="1">
          <mxGeometry x="235" y="864" width="185" height="20" as="geometry" />
        </mxCell>
        <mxCell id="RUk002K17qzkggGKawHd-20" value="DashboardComponent" style="text;html=1;strokeColor=none;fillColor=none;align=center;verticalAlign=middle;whiteSpace=wrap;rounded=0;" parent="1" vertex="1">
          <mxGeometry x="406.75" y="864" width="175" height="20" as="geometry" />
        </mxCell>
        <mxCell id="RUk002K17qzkggGKawHd-21" value="FlightControlsView" style="text;html=1;strokeColor=none;fillColor=none;align=center;verticalAlign=middle;whiteSpace=wrap;rounded=0;" parent="1" vertex="1">
          <mxGeometry x="588.25" y="864" width="153" height="20" as="geometry" />
        </mxCell>
        <mxCell id="RUk002K17qzkggGKawHd-22" value="Joystick" style="text;html=1;strokeColor=none;fillColor=none;align=center;verticalAlign=middle;whiteSpace=wrap;rounded=0;" parent="1" vertex="1">
          <mxGeometry x="761.25" y="866" width="167" height="20" as="geometry" />
        </mxCell>
        <mxCell id="RUk002K17qzkggGKawHd-23" value="Board" style="text;html=1;strokeColor=none;fillColor=none;align=center;verticalAlign=middle;whiteSpace=wrap;rounded=0;" parent="1" vertex="1">
          <mxGeometry x="944.75" y="864" width="140" height="20" as="geometry" />
        </mxCell>
        <mxCell id="RUk002K17qzkggGKawHd-24" value="PlaySpeed" style="text;html=1;strokeColor=none;fillColor=none;align=center;verticalAlign=middle;whiteSpace=wrap;rounded=0;" parent="1" vertex="1">
          <mxGeometry x="1138.25" y="864" width="89" height="20" as="geometry" />
        </mxCell>
        <mxCell id="RUk002K17qzkggGKawHd-25" value="Sliders" style="text;html=1;strokeColor=none;fillColor=none;align=center;verticalAlign=middle;whiteSpace=wrap;rounded=0;" parent="1" vertex="1">
          <mxGeometry x="1322.25" y="864" width="84" height="20" as="geometry" />
        </mxCell>
        <mxCell id="RUk002K17qzkggGKawHd-26" value="MainWindow" style="text;html=1;strokeColor=none;fillColor=none;align=center;verticalAlign=middle;whiteSpace=wrap;rounded=0;" parent="1" vertex="1">
          <mxGeometry x="1486.25" y="864" width="110" height="20" as="geometry" />
        </mxCell>
        <mxCell id="RUk002K17qzkggGKawHd-27" value="+OnClickConnect&lt;br&gt;+ConnectionButton&lt;br&gt;+OnClickDisconnect&lt;br&gt;+OnClickExit" style="text;html=1;strokeColor=none;fillColor=none;align=center;verticalAlign=middle;whiteSpace=wrap;rounded=0;" parent="1" vertex="1">
          <mxGeometry x="26" y="926.25" width="209" height="52" as="geometry" />
        </mxCell>
        <mxCell id="RUk002K17qzkggGKawHd-28" value="+ConnectionDifintionsWindow()&lt;br&gt;+ClickOnConnect()&lt;br&gt;+Button_Click()&lt;br&gt;" style="text;html=1;strokeColor=none;fillColor=none;align=center;verticalAlign=middle;whiteSpace=wrap;rounded=0;" parent="1" vertex="1">
          <mxGeometry x="229.5" y="926.25" width="194" height="47.5" as="geometry" />
        </mxCell>
        <mxCell id="RUk002K17qzkggGKawHd-29" value="+DashBoardComponent()" style="text;html=1;strokeColor=none;fillColor=none;align=center;verticalAlign=middle;whiteSpace=wrap;rounded=0;" parent="1" vertex="1">
          <mxGeometry x="381.5" y="926.25" width="216" height="53" as="geometry" />
        </mxCell>
        <mxCell id="RUk002K17qzkggGKawHd-30" value="+FlightControlsView()&lt;br&gt;" style="text;html=1;strokeColor=none;fillColor=none;align=center;verticalAlign=middle;whiteSpace=wrap;rounded=0;" parent="1" vertex="1">
          <mxGeometry x="571.5" y="912.5" width="193" height="69" as="geometry" />
        </mxCell>
        <mxCell id="RUk002K17qzkggGKawHd-31" value="+Joystick()&lt;br&gt;+X()&lt;br&gt;+Y()" style="text;html=1;strokeColor=none;fillColor=none;align=left;verticalAlign=middle;whiteSpace=wrap;rounded=0;" parent="1" vertex="1">
          <mxGeometry x="776.75" y="908.75" width="181" height="63" as="geometry" />
        </mxCell>
        <mxCell id="RUk002K17qzkggGKawHd-32" value="+Board()" style="text;html=1;strokeColor=none;fillColor=none;align=center;verticalAlign=middle;whiteSpace=wrap;rounded=0;" parent="1" vertex="1">
          <mxGeometry x="917.5" y="921.25" width="181" height="41.5" as="geometry" />
        </mxCell>
        <mxCell id="RUk002K17qzkggGKawHd-33" value="+PlaySpeed()" style="text;html=1;strokeColor=none;fillColor=none;align=center;verticalAlign=middle;whiteSpace=wrap;rounded=0;" parent="1" vertex="1">
          <mxGeometry x="1117.5" y="930.25" width="169" height="20" as="geometry" />
        </mxCell>
        <mxCell id="RUk002K17qzkggGKawHd-34" value="&lt;div style=&quot;text-align: left&quot;&gt;&lt;span&gt;+Sliders&lt;/span&gt;&lt;/div&gt;&lt;div style=&quot;text-align: left&quot;&gt;&lt;span&gt;+ValueChangedAileron()&lt;/span&gt;&lt;/div&gt;&lt;div style=&quot;text-align: left&quot;&gt;&lt;span&gt;+ValueChangedThrottle()&lt;/span&gt;&lt;/div&gt;" style="text;html=1;strokeColor=none;fillColor=none;align=center;verticalAlign=middle;whiteSpace=wrap;rounded=0;" parent="1" vertex="1">
          <mxGeometry x="1289.5" y="889" width="149" height="116" as="geometry" />
        </mxCell>
        <mxCell id="RUk002K17qzkggGKawHd-35" value="+MainWindow()" style="text;html=1;strokeColor=none;fillColor=none;align=center;verticalAlign=middle;whiteSpace=wrap;rounded=0;" parent="1" vertex="1">
          <mxGeometry x="1470.25" y="896" width="112" height="20" as="geometry" />
        </mxCell>
        <mxCell id="RUk002K17qzkggGKawHd-36" value="&lt;b&gt;&lt;i&gt;&lt;u&gt;&lt;font style=&quot;font-size: 24px&quot; face=&quot;Garamond&quot;&gt;MVVM&lt;/font&gt;&lt;/u&gt;&lt;/i&gt;&lt;/b&gt;" style="text;html=1;strokeColor=none;fillColor=none;align=center;verticalAlign=middle;whiteSpace=wrap;rounded=0;" parent="1" vertex="1">
          <mxGeometry x="787.5" y="8" width="186" height="20" as="geometry" />
        </mxCell>
        <mxCell id="RUk002K17qzkggGKawHd-42" value="" style="edgeStyle=segmentEdgeStyle;endArrow=classic;html=1;strokeColor=#4C0099;" parent="1" edge="1">
          <mxGeometry width="50" height="50" relative="1" as="geometry">
            <mxPoint x="284" y="601" as="sourcePoint" />
            <mxPoint x="766" y="81" as="targetPoint" />
            <Array as="points">
              <mxPoint x="232" y="601" />
              <mxPoint x="232" y="81" />
            </Array>
          </mxGeometry>
        </mxCell>
        <mxCell id="RUk002K17qzkggGKawHd-44" value="" style="edgeStyle=segmentEdgeStyle;endArrow=classic;html=1;entryX=0;entryY=1;entryDx=0;entryDy=0;" parent="1" target="WmbeK4CtPqVoYz8nJGs1-6" edge="1">
          <mxGeometry width="50" height="50" relative="1" as="geometry">
            <mxPoint x="522" y="596" as="sourcePoint" />
            <mxPoint x="723" y="119" as="targetPoint" />
            <Array as="points">
              <mxPoint x="504" y="596" />
              <mxPoint x="504" y="119" />
              <mxPoint x="782" y="119" />
            </Array>
          </mxGeometry>
        </mxCell>
        <mxCell id="RUk002K17qzkggGKawHd-47" value="" style="edgeStyle=segmentEdgeStyle;endArrow=classic;html=1;entryX=0;entryY=1;entryDx=0;entryDy=0;strokeColor=#4C0099;" parent="1" target="WmbeK4CtPqVoYz8nJGs1-6" edge="1">
          <mxGeometry width="50" height="50" relative="1" as="geometry">
            <mxPoint x="522" y="596" as="sourcePoint" />
            <mxPoint x="782" y="107.00000000000011" as="targetPoint" />
            <Array as="points">
              <mxPoint x="504" y="596" />
              <mxPoint x="504" y="119" />
              <mxPoint x="782" y="119" />
            </Array>
          </mxGeometry>
        </mxCell>
        <mxCell id="RUk002K17qzkggGKawHd-49" value="" style="edgeStyle=segmentEdgeStyle;endArrow=classic;html=1;strokeColor=#4C0099;" parent="1" edge="1">
          <mxGeometry width="50" height="50" relative="1" as="geometry">
            <mxPoint x="1430" y="590" as="sourcePoint" />
            <mxPoint x="997" y="80" as="targetPoint" />
            <Array as="points">
              <mxPoint x="1510" y="590" />
              <mxPoint x="1510" y="80" />
            </Array>
          </mxGeometry>
        </mxCell>
        <mxCell id="RUk002K17qzkggGKawHd-50" value="" style="edgeStyle=segmentEdgeStyle;endArrow=classic;html=1;entryX=1;entryY=0.75;entryDx=0;entryDy=0;strokeColor=#4C0099;" parent="1" source="WmbeK4CtPqVoYz8nJGs1-73" target="WmbeK4CtPqVoYz8nJGs1-4" edge="1">
          <mxGeometry width="50" height="50" relative="1" as="geometry">
            <mxPoint x="1229" y="477" as="sourcePoint" />
            <mxPoint x="961" y="285" as="targetPoint" />
            <Array as="points">
              <mxPoint x="1192" y="559" />
              <mxPoint x="1192" y="109" />
              <mxPoint x="994" y="109" />
            </Array>
          </mxGeometry>
        </mxCell>
        <mxCell id="RUk002K17qzkggGKawHd-51" value="" style="edgeStyle=segmentEdgeStyle;endArrow=classic;html=1;entryX=1;entryY=1;entryDx=0;entryDy=0;strokeColor=#4C0099;" parent="1" target="WmbeK4CtPqVoYz8nJGs1-6" edge="1">
          <mxGeometry width="50" height="50" relative="1" as="geometry">
            <mxPoint x="864" y="535" as="sourcePoint" />
            <mxPoint x="914" y="485" as="targetPoint" />
            <Array as="points">
              <mxPoint x="864" y="513" />
              <mxPoint x="1128" y="513" />
              <mxPoint x="1128" y="149" />
              <mxPoint x="953" y="149" />
            </Array>
          </mxGeometry>
        </mxCell>
        <mxCell id="RUk002K17qzkggGKawHd-52" value="" style="edgeStyle=segmentEdgeStyle;endArrow=classic;html=1;exitX=0.047;exitY=0.077;exitDx=0;exitDy=0;exitPerimeter=0;" parent="1" source="WmbeK4CtPqVoYz8nJGs1-75" edge="1">
          <mxGeometry width="50" height="50" relative="1" as="geometry">
            <mxPoint x="861" y="470" as="sourcePoint" />
            <mxPoint x="768" y="225" as="targetPoint" />
            <Array as="points">
              <mxPoint x="275" y="539" />
              <mxPoint x="275" y="225" />
            </Array>
          </mxGeometry>
        </mxCell>
        <mxCell id="RUk002K17qzkggGKawHd-53" value="" style="edgeStyle=segmentEdgeStyle;endArrow=classic;html=1;exitX=0.089;exitY=-0.517;exitDx=0;exitDy=0;exitPerimeter=0;entryX=-0.015;entryY=0.651;entryDx=0;entryDy=0;entryPerimeter=0;" parent="1" source="WmbeK4CtPqVoYz8nJGs1-76" target="WmbeK4CtPqVoYz8nJGs1-8" edge="1">
          <mxGeometry width="50" height="50" relative="1" as="geometry">
            <mxPoint x="536.5" y="454" as="sourcePoint" />
            <mxPoint x="765" y="256" as="targetPoint" />
            <Array as="points">
              <mxPoint x="537" y="241" />
              <mxPoint x="765" y="241" />
            </Array>
          </mxGeometry>
        </mxCell>
        <mxCell id="RUk002K17qzkggGKawHd-54" value="" style="edgeStyle=segmentEdgeStyle;endArrow=classic;html=1;" parent="1" edge="1">
          <mxGeometry width="50" height="50" relative="1" as="geometry">
            <mxPoint x="1431" y="563" as="sourcePoint" />
            <mxPoint x="994" y="224" as="targetPoint" />
            <Array as="points">
              <mxPoint x="1450" y="563" />
              <mxPoint x="1450" y="224" />
              <mxPoint x="1006" y="224" />
            </Array>
          </mxGeometry>
        </mxCell>
        <mxCell id="RUk002K17qzkggGKawHd-55" value="" style="edgeStyle=segmentEdgeStyle;endArrow=classic;html=1;exitX=0.75;exitY=0;exitDx=0;exitDy=0;" parent="1" source="WmbeK4CtPqVoYz8nJGs1-78" edge="1">
          <mxGeometry width="50" height="50" relative="1" as="geometry">
            <mxPoint x="1249" y="371" as="sourcePoint" />
            <mxPoint x="989" y="248" as="targetPoint" />
            <Array as="points">
              <mxPoint x="1165" y="537" />
              <mxPoint x="1165" y="248" />
            </Array>
          </mxGeometry>
        </mxCell>
        <mxCell id="RUk002K17qzkggGKawHd-56" value="" style="edgeStyle=segmentEdgeStyle;endArrow=classic;html=1;entryX=-0.048;entryY=0.887;entryDx=0;entryDy=0;entryPerimeter=0;exitX=-0.007;exitY=0.102;exitDx=0;exitDy=0;exitPerimeter=0;" parent="1" source="WmbeK4CtPqVoYz8nJGs1-72" target="WmbeK4CtPqVoYz8nJGs1-8" edge="1">
          <mxGeometry width="50" height="50" relative="1" as="geometry">
            <mxPoint x="774" y="524" as="sourcePoint" />
            <mxPoint x="731" y="263" as="targetPoint" />
            <Array as="points">
              <mxPoint x="730" y="541" />
              <mxPoint x="730" y="264" />
            </Array>
          </mxGeometry>
        </mxCell>
        <mxCell id="RUk002K17qzkggGKawHd-57" value="" style="whiteSpace=wrap;html=1;aspect=fixed;rotation=20;" parent="1" vertex="1">
          <mxGeometry x="278" y="597" width="11" height="11" as="geometry" />
        </mxCell>
        <mxCell id="RUk002K17qzkggGKawHd-58" value="" style="whiteSpace=wrap;html=1;aspect=fixed;rotation=20;" parent="1" vertex="1">
          <mxGeometry x="517" y="591" width="11" height="11" as="geometry" />
        </mxCell>
        <mxCell id="RUk002K17qzkggGKawHd-64" value="" style="whiteSpace=wrap;html=1;aspect=fixed;rotation=45;" parent="1" vertex="1">
          <mxGeometry x="856" y="531" width="11" height="11" as="geometry" />
        </mxCell>
        <mxCell id="RUk002K17qzkggGKawHd-65" value="" style="whiteSpace=wrap;html=1;aspect=fixed;rotation=35;" parent="1" vertex="1">
          <mxGeometry x="1178" y="555" width="10" height="10" as="geometry" />
        </mxCell>
        <mxCell id="RUk002K17qzkggGKawHd-66" value="" style="whiteSpace=wrap;html=1;aspect=fixed;rotation=30;" parent="1" vertex="1">
          <mxGeometry x="1419" y="586" width="11" height="11" as="geometry" />
        </mxCell>
        <mxCell id="RUk002K17qzkggGKawHd-73" value="" style="edgeStyle=segmentEdgeStyle;endArrow=classic;html=1;entryX=0.959;entryY=0.955;entryDx=0;entryDy=0;entryPerimeter=0;" parent="1" target="WmbeK4CtPqVoYz8nJGs1-74" edge="1">
          <mxGeometry width="50" height="50" relative="1" as="geometry">
            <mxPoint x="1569" y="856" as="sourcePoint" />
            <mxPoint x="1434" y="626" as="targetPoint" />
            <Array as="points">
              <mxPoint x="1569" y="626" />
              <mxPoint x="1431" y="626" />
              <mxPoint x="1431" y="636" />
            </Array>
          </mxGeometry>
        </mxCell>
        <mxCell id="RUk002K17qzkggGKawHd-74" value="" style="edgeStyle=segmentEdgeStyle;endArrow=classic;html=1;exitX=0.75;exitY=0;exitDx=0;exitDy=0;entryX=0.573;entryY=1;entryDx=0;entryDy=0;entryPerimeter=0;" parent="1" edge="1">
          <mxGeometry width="50" height="50" relative="1" as="geometry">
            <mxPoint x="1333" y="864" as="sourcePoint" />
            <mxPoint x="1102.1419999999998" y="641" as="targetPoint" />
            <Array as="points">
              <mxPoint x="1333.25" y="736" />
              <mxPoint x="1102.25" y="736" />
            </Array>
          </mxGeometry>
        </mxCell>
        <mxCell id="RUk002K17qzkggGKawHd-76" value="" style="edgeStyle=segmentEdgeStyle;endArrow=classic;html=1;" parent="1" edge="1">
          <mxGeometry width="50" height="50" relative="1" as="geometry">
            <mxPoint x="886" y="851" as="sourcePoint" />
            <mxPoint x="1047" y="649" as="targetPoint" />
            <Array as="points">
              <mxPoint x="886" y="761" />
              <mxPoint x="1047" y="761" />
              <mxPoint x="1047" y="666" />
            </Array>
          </mxGeometry>
        </mxCell>
        <mxCell id="RUk002K17qzkggGKawHd-77" value="" style="edgeStyle=segmentEdgeStyle;endArrow=classic;html=1;strokeColor=#000066;" parent="1" edge="1">
          <mxGeometry width="50" height="50" relative="1" as="geometry">
            <mxPoint x="143" y="849" as="sourcePoint" />
            <mxPoint x="304.1399999999999" y="630" as="targetPoint" />
            <Array as="points">
              <mxPoint x="143.13999999999987" y="742" />
              <mxPoint x="304.1399999999999" y="742" />
              <mxPoint x="304.1399999999999" y="647" />
            </Array>
          </mxGeometry>
        </mxCell>
        <mxCell id="RUk002K17qzkggGKawHd-78" value="" style="whiteSpace=wrap;html=1;aspect=fixed;rotation=20;" parent="1" vertex="1">
          <mxGeometry x="137.74942020261363" y="850.9994202026137" width="11" height="11" as="geometry" />
        </mxCell>
        <mxCell id="RUk002K17qzkggGKawHd-81" value="" style="edgeStyle=segmentEdgeStyle;endArrow=classic;html=1;strokeColor=#000066;" parent="1" edge="1">
          <mxGeometry width="50" height="50" relative="1" as="geometry">
            <mxPoint x="499" y="859" as="sourcePoint" />
            <mxPoint x="660.1399999999999" y="640" as="targetPoint" />
            <Array as="points">
              <mxPoint x="499.1399999999999" y="752" />
              <mxPoint x="660.1399999999999" y="752" />
              <mxPoint x="660.1399999999999" y="657" />
            </Array>
          </mxGeometry>
        </mxCell>
        <mxCell id="RUk002K17qzkggGKawHd-82" value="" style="whiteSpace=wrap;html=1;aspect=fixed;rotation=20;" parent="1" vertex="1">
          <mxGeometry x="495.9994202026137" y="857.9994202026137" width="11" height="11" as="geometry" />
        </mxCell>
        <mxCell id="RUk002K17qzkggGKawHd-83" value="" style="edgeStyle=segmentEdgeStyle;endArrow=classic;html=1;strokeColor=#000066;entryX=0.25;entryY=1;entryDx=0;entryDy=0;" parent="1" target="WmbeK4CtPqVoYz8nJGs1-84" edge="1">
          <mxGeometry width="50" height="50" relative="1" as="geometry">
            <mxPoint x="197" y="857" as="sourcePoint" />
            <mxPoint x="1271" y="647" as="targetPoint" />
            <Array as="points">
              <mxPoint x="197" y="659" />
              <mxPoint x="1285" y="659" />
            </Array>
          </mxGeometry>
        </mxCell>
        <mxCell id="RUk002K17qzkggGKawHd-84" value="" style="whiteSpace=wrap;html=1;aspect=fixed;rotation=35;" parent="1" vertex="1">
          <mxGeometry x="194.99942020261363" y="857.9994202026137" width="11" height="11" as="geometry" />
        </mxCell>
        <mxCell id="RUk002K17qzkggGKawHd-86" value="" style="edgeStyle=segmentEdgeStyle;endArrow=classic;html=1;exitX=0.75;exitY=0;exitDx=0;exitDy=0;" parent="1" edge="1">
          <mxGeometry width="50" height="50" relative="1" as="geometry">
            <mxPoint x="1544.86" y="858" as="sourcePoint" />
            <mxPoint x="882" y="635" as="targetPoint" />
            <Array as="points">
              <mxPoint x="1545" y="676" />
              <mxPoint x="882" y="676" />
            </Array>
          </mxGeometry>
        </mxCell>
        <mxCell id="RUk002K17qzkggGKawHd-87" value="" style="edgeStyle=segmentEdgeStyle;endArrow=classic;html=1;" parent="1" edge="1">
          <mxGeometry width="50" height="50" relative="1" as="geometry">
            <mxPoint x="1528" y="854" as="sourcePoint" />
            <mxPoint x="676" y="632" as="targetPoint" />
            <Array as="points">
              <mxPoint x="1528" y="684" />
              <mxPoint x="676" y="684" />
              <mxPoint x="676" y="643" />
            </Array>
          </mxGeometry>
        </mxCell>
        <mxCell id="RUk002K17qzkggGKawHd-88" value="" style="whiteSpace=wrap;html=1;aspect=fixed;rotation=20;" parent="1" vertex="1">
          <mxGeometry x="1540.9994202026137" y="857.9994202026137" width="11" height="11" as="geometry" />
        </mxCell>
        <mxCell id="RUk002K17qzkggGKawHd-89" value="" style="whiteSpace=wrap;html=1;aspect=fixed;rotation=20;" parent="1" vertex="1">
          <mxGeometry x="1522.9994202026137" y="854.9994202026137" width="11" height="11" as="geometry" />
        </mxCell>
        <mxCell id="RUk002K17qzkggGKawHd-90" value="" style="whiteSpace=wrap;html=1;aspect=fixed;rotation=20;" parent="1" vertex="1">
          <mxGeometry x="1562.9994202026137" y="854.9994202026137" width="11" height="11" as="geometry" />
        </mxCell>
        <mxCell id="RUk002K17qzkggGKawHd-91" value="" style="whiteSpace=wrap;html=1;aspect=fixed;rotation=20;" parent="1" vertex="1">
          <mxGeometry x="1327.9994202026137" y="863.9994202026137" width="11" height="11" as="geometry" />
        </mxCell>
        <mxCell id="RUk002K17qzkggGKawHd-92" value="" style="whiteSpace=wrap;html=1;aspect=fixed;rotation=20;" parent="1" vertex="1">
          <mxGeometry x="882.9994202026137" y="852.9994202026137" width="11" height="11" as="geometry" />
        </mxCell>
        <mxCell id="RUk002K17qzkggGKawHd-93" value="" style="edgeStyle=segmentEdgeStyle;endArrow=classic;html=1;" parent="1" edge="1">
          <mxGeometry width="50" height="50" relative="1" as="geometry">
            <mxPoint x="1069" y="858" as="sourcePoint" />
            <mxPoint x="1377" y="644" as="targetPoint" />
            <Array as="points">
              <mxPoint x="1069" y="768" />
              <mxPoint x="1383" y="768" />
              <mxPoint x="1383" y="656" />
            </Array>
          </mxGeometry>
        </mxCell>
        <mxCell id="RUk002K17qzkggGKawHd-94" value="" style="whiteSpace=wrap;html=1;aspect=fixed;rotation=20;" parent="1" vertex="1">
          <mxGeometry x="1062.9994202026137" y="857.9994202026137" width="11" height="11" as="geometry" />
        </mxCell>
        <mxCell id="RUk002K17qzkggGKawHd-95" value="" style="edgeStyle=segmentEdgeStyle;endArrow=classic;html=1;" parent="1" target="WmbeK4CtPqVoYz8nJGs1-74" edge="1">
          <mxGeometry width="50" height="50" relative="1" as="geometry">
            <mxPoint x="704" y="858" as="sourcePoint" />
            <mxPoint x="1012" y="644" as="targetPoint" />
            <Array as="points">
              <mxPoint x="704" y="756" />
              <mxPoint x="1340" y="756" />
            </Array>
          </mxGeometry>
        </mxCell>
        <mxCell id="RUk002K17qzkggGKawHd-96" value="" style="whiteSpace=wrap;html=1;aspect=fixed;rotation=20;" parent="1" vertex="1">
          <mxGeometry x="697.9994202026137" y="857.9994202026137" width="11" height="11" as="geometry" />
        </mxCell>
        <mxCell id="RUk002K17qzkggGKawHd-97" value="" style="edgeStyle=segmentEdgeStyle;endArrow=classic;html=1;strokeColor=#000066;" parent="1" edge="1">
          <mxGeometry width="50" height="50" relative="1" as="geometry">
            <mxPoint x="725" y="849" as="sourcePoint" />
            <mxPoint x="1004.0000000000001" y="630" as="targetPoint" />
            <Array as="points">
              <mxPoint x="725" y="849" />
              <mxPoint x="725" y="742" />
              <mxPoint x="1004" y="742" />
            </Array>
          </mxGeometry>
        </mxCell>
        <mxCell id="RUk002K17qzkggGKawHd-98" value="" style="whiteSpace=wrap;html=1;aspect=fixed;rotation=20;" parent="1" vertex="1">
          <mxGeometry x="720.9994202026137" y="852.9994202026137" width="11" height="11" as="geometry" />
        </mxCell>
        <mxCell id="RUk002K17qzkggGKawHd-99" value="" style="edgeStyle=segmentEdgeStyle;endArrow=classic;html=1;strokeColor=#000066;exitX=0.526;exitY=-0.097;exitDx=0;exitDy=0;exitPerimeter=0;" parent="1" source="RUk002K17qzkggGKawHd-19" edge="1">
          <mxGeometry width="50" height="50" relative="1" as="geometry">
            <mxPoint x="281" y="862" as="sourcePoint" />
            <mxPoint x="442.1399999999999" y="643" as="targetPoint" />
            <Array as="points">
              <mxPoint x="334" y="862" />
              <mxPoint x="334" y="755" />
              <mxPoint x="442" y="755" />
            </Array>
          </mxGeometry>
        </mxCell>
        <mxCell id="RUk002K17qzkggGKawHd-100" value="" style="whiteSpace=wrap;html=1;aspect=fixed;rotation=20;" parent="1" vertex="1">
          <mxGeometry x="320.99942020261363" y="857.9994202026137" width="11" height="11" as="geometry" />
        </mxCell>
      </root>
    </mxGraphModel>
  </diagram>
</mxfile>
